<?xml version="1.0" standalone="no"?>
<!DOCTYPE svg PUBLIC "-//W3C//DTD SVG 20010904//EN"
 "http://www.w3.org/TR/2001/REC-SVG-20010904/DTD/svg10.dtd">
<svg version="1.0" xmlns="http://www.w3.org/2000/svg"
 width="512.000000pt" height="512.000000pt" viewBox="0 0 512.000000 512.000000"
 preserveAspectRatio="xMidYMid meet">

<g transform="translate(0.000000,512.000000) scale(0.100000,-0.100000)"
fill="#000000" stroke="none">
<path d="M2511 5106 c-87 -48 -50 -186 49 -186 51 0 100 49 100 99 0 75 -83
124 -149 87z"/>
<path d="M2088 5030 c-15 -4 -64 -26 -107 -49 -281 -142 -505 -381 -622 -666
l-38 -90 -428 -5 c-235 -3 -436 -9 -446 -14 -35 -17 -47 -60 -47 -174 l0 -110
-88 -4 c-142 -7 -233 -63 -286 -177 l-21 -46 0 -1585 0 -1585 21 -46 c31 -66
78 -114 142 -146 l57 -28 816 -3 815 -2 12 -58 c23 -110 100 -196 205 -227 74
-22 900 -22 974 0 105 31 182 117 205 227 l12 58 815 2 816 3 57 28 c64 32
111 80 142 146 l21 46 0 1585 0 1585 -21 46 c-53 114 -144 170 -286 177 l-88
4 0 110 c0 114 -12 157 -47 174 -10 5 -211 11 -447 14 l-429 5 -37 92 c-88
216 -256 427 -451 566 -74 52 -224 132 -277 147 -46 12 -96 -8 -116 -49 -35
-67 -10 -111 91 -157 294 -133 519 -394 609 -702 109 -378 0 -798 -282 -1077
-76 -75 -105 -98 -246 -190 -68 -43 -108 -91 -145 -171 -22 -48 -27 -77 -31
-161 l-5 -103 -123 0 -124 0 0 527 0 527 144 146 c87 88 147 156 151 173 19
76 -46 141 -122 122 -16 -4 -79 -57 -150 -128 l-123 -121 -123 121 c-71 71
-134 124 -150 128 -76 19 -141 -46 -122 -122 4 -17 64 -85 151 -173 l144 -146
0 -527 0 -527 -124 0 -123 0 -5 103 c-4 84 -9 113 -31 161 -37 80 -77 128
-145 171 -143 94 -171 115 -247 190 -369 365 -429 941 -142 1377 110 167 253
292 445 388 128 64 153 100 116 171 -12 24 -70 63 -86 58 -2 0 -15 -4 -30 -9z
m-823 -1192 c0 -155 4 -199 23 -288 75 -337 269 -620 552 -809 177 -118 164
-80 170 -486 l5 -330 32 -67 c65 -139 187 -224 336 -235 l77 -6 0 -383 c0
-211 -2 -384 -4 -384 -2 0 -25 10 -52 22 l-49 23 -877 3 -878 3 0 1559 0 1560
333 0 332 0 0 -182z m3255 -1378 l0 -1559 -877 -3 -878 -3 -49 -23 c-27 -12
-50 -22 -52 -22 -2 0 -4 173 -4 384 l0 383 77 6 c149 11 271 96 336 235 l32
67 5 330 c6 405 -6 369 167 484 382 255 601 688 579 1149 l-6 132 335 0 335 0
0 -1560z m-4120 -221 l0 -1481 29 -29 29 -29 902 0 c654 0 914 -3 948 -12 31
-8 59 -25 88 -53 54 -54 64 -101 64 -290 l0 -145 -152 0 c-212 0 -232 12 -253
151 -3 21 -20 53 -40 76 -66 78 -7 73 -909 73 -897 0 -863 -2 -891 64 -22 53
-22 3039 0 3092 18 43 60 63 133 64 l52 0 0 -1481z m4456 1466 c68 -28 64 78
64 -1595 0 -1304 -2 -1515 -15 -1546 -28 -66 5 -64 -890 -64 -653 0 -812 -3
-838 -13 -48 -20 -105 -89 -112 -134 -21 -142 -40 -153 -252 -153 l-153 0 0
151 c0 82 5 171 12 197 15 62 78 125 140 140 34 9 294 12 948 12 l902 0 29 29
29 29 0 1481 0 1481 50 0 c28 0 66 -7 86 -15z m-1946 -1588 c0 -174 -40 -251
-145 -283 -67 -20 -343 -20 -410 0 -105 32 -145 109 -145 283 l0 103 350 0
350 0 0 -103z"/>
</g>
</svg>
